#tb 0: 1/44100
#media_type 0: audio
#codec_id 0: eac3
#sample_rate 0: 44100
#channel_layout_name 0: 7.1
0,       -256,       -256,     1536,     5758, 0x87ae4e00
0,       1280,       1280,     1536,     5760, 0x11378061
0,       2816,       2816,     1536,     5758, 0xb5fea1d0
0,       4352,       4352,     1536,     5758, 0xaa44938c
0,       5888,       5888,     1536,     5758, 0x2f434897
0,       7424,       7424,     1536,     5758, 0x9eaf81d5
0,       8960,       8960,     1536,     5760, 0xd4644744
0,      10496,      10496,     1536,     5758, 0x3e5e9a7d
